<svg width="24" height="24" viewBox="0 0 24 24" fill="none" xmlns="http://www.w3.org/2000/svg">
<path d="M17.3333 6.66667V17.3333V6.66667ZM12 10.6667V17.3333V10.6667ZM6.66668 14.6667V17.3333V14.6667ZM4.00001 22.6667H20C20.7073 22.6667 21.3855 22.3857 21.8856 21.8856C22.3857 21.3855 22.6667 20.7072 22.6667 20V4C22.6667 3.29276 22.3857 2.61448 21.8856 2.11438C21.3855 1.61429 20.7073 1.33334 20 1.33334H4.00001C3.29277 1.33334 2.61449 1.61429 2.11439 2.11438C1.61429 2.61448 1.33334 3.29276 1.33334 4V20C1.33334 20.7072 1.61429 21.3855 2.11439 21.8856C2.61449 22.3857 3.29277 22.6667 4.00001 22.6667Z" stroke="white" stroke-width="2" stroke-linecap="round" stroke-linejoin="round"/>
</svg>
