<svg width="18" height="12" viewBox="0 0 18 12" fill="none" xmlns="http://www.w3.org/2000/svg">
<path d="M7.933 6.8C8.0572 6.70685 8.158 6.58607 8.22743 6.44721C8.29686 6.30836 8.333 6.15525 8.333 6C8.333 5.84476 8.29686 5.69164 8.22743 5.55279C8.158 5.41393 8.0572 5.29315 7.933 5.2L2.6 1.2C2.45143 1.08857 2.27477 1.02072 2.08981 1.00404C1.90484 0.987363 1.71889 1.02252 1.55279 1.10557C1.38668 1.18863 1.24698 1.31629 1.14935 1.47427C1.05171 1.63225 1 1.81429 1 2V10C1 10.1857 1.05171 10.3678 1.14935 10.5257C1.24698 10.6837 1.38668 10.8114 1.55279 10.8944C1.71889 10.9775 1.90484 11.0126 2.08981 10.996C2.27477 10.9793 2.45143 10.9114 2.6 10.8L7.933 6.8ZM15.933 6.8C16.0572 6.70685 16.158 6.58607 16.2274 6.44721C16.2969 6.30836 16.333 6.15525 16.333 6C16.333 5.84476 16.2969 5.69164 16.2274 5.55279C16.158 5.41393 16.0572 5.29315 15.933 5.2L10.6 1.2C10.4514 1.08857 10.2748 1.02072 10.0898 1.00404C9.90484 0.987363 9.71889 1.02252 9.55279 1.10557C9.38668 1.18863 9.24698 1.31629 9.14935 1.47427C9.05171 1.63225 9 1.81429 9 2V10C9 10.1857 9.05171 10.3678 9.14935 10.5257C9.24698 10.6837 9.38668 10.8114 9.55279 10.8944C9.71889 10.9775 9.90484 11.0126 10.0898 10.996C10.2748 10.9793 10.4514 10.9114 10.6 10.8L15.933 6.8Z" stroke="#A0A0A0" stroke-width="2" stroke-linecap="round" stroke-linejoin="round"/>
</svg>
