<svg width="24" height="24" viewBox="0 0 24 24" fill="none" xmlns="http://www.w3.org/2000/svg">
<path d="M17 19H22V17C22 16.3765 21.8057 15.7686 21.4441 15.2606C21.0826 14.7527 20.5718 14.37 19.9827 14.1658C19.3937 13.9615 18.7556 13.9459 18.1573 14.121C17.5589 14.2962 17.03 14.6534 16.644 15.143M17 19H7M17 19V17C17 16.344 16.874 15.717 16.644 15.143M16.644 15.143C16.2726 14.215 15.6318 13.4195 14.804 12.8591C13.9762 12.2988 12.9996 11.9993 12 11.9993C11.0004 11.9993 10.0238 12.2988 9.196 12.8591C8.36825 13.4195 7.72736 14.215 7.356 15.143M7 19H2V17C2.00005 16.3765 2.19434 15.7686 2.55586 15.2606C2.91739 14.7527 3.42819 14.37 4.01725 14.1658C4.60632 13.9615 5.24438 13.9459 5.84274 14.121C6.4411 14.2962 6.97003 14.6534 7.356 15.143M7 19V17C7 16.344 7.126 15.717 7.356 15.143M15 6C15 6.79565 14.6839 7.55871 14.1213 8.12132C13.5587 8.68393 12.7956 9 12 9C11.2044 9 10.4413 8.68393 9.87868 8.12132C9.31607 7.55871 9 6.79565 9 6C9 5.20435 9.31607 4.44129 9.87868 3.87868C10.4413 3.31607 11.2044 3 12 3C12.7956 3 13.5587 3.31607 14.1213 3.87868C14.6839 4.44129 15 5.20435 15 6ZM21 9C21 9.53043 20.7893 10.0391 20.4142 10.4142C20.0391 10.7893 19.5304 11 19 11C18.4696 11 17.9609 10.7893 17.5858 10.4142C17.2107 10.0391 17 9.53043 17 9C17 8.46957 17.2107 7.96086 17.5858 7.58579C17.9609 7.21071 18.4696 7 19 7C19.5304 7 20.0391 7.21071 20.4142 7.58579C20.7893 7.96086 21 8.46957 21 9ZM7 9C7 9.53043 6.78929 10.0391 6.41421 10.4142C6.03914 10.7893 5.53043 11 5 11C4.46957 11 3.96086 10.7893 3.58579 10.4142C3.21071 10.0391 3 9.53043 3 9C3 8.46957 3.21071 7.96086 3.58579 7.58579C3.96086 7.21071 4.46957 7 5 7C5.53043 7 6.03914 7.21071 6.41421 7.58579C6.78929 7.96086 7 8.46957 7 9Z" stroke="#A0A0A0" stroke-width="1.5" stroke-linecap="round" stroke-linejoin="round"/>
</svg>
