<svg width="30" height="24" viewBox="0 0 30 24" fill="none" xmlns="http://www.w3.org/2000/svg">
<path d="M21.6667 22.6667H28.3333V20C28.3333 19.1687 28.0742 18.3581 27.5922 17.6808C27.1101 17.0036 26.4291 16.4933 25.6437 16.221C24.8582 15.9487 24.0075 15.9278 23.2097 16.1614C22.4119 16.3949 21.7066 16.8712 21.192 17.524M21.6667 22.6667H8.33332M21.6667 22.6667V20C21.6667 19.1253 21.4987 18.2893 21.192 17.524M21.192 17.524C20.6968 16.2866 19.8423 15.226 18.7387 14.4788C17.635 13.7317 16.3328 13.3324 15 13.3324C13.6672 13.3324 12.365 13.7317 11.2613 14.4788C10.1576 15.226 9.30313 16.2866 8.80799 17.524M8.33332 22.6667H1.66666V20C1.66672 19.1687 1.92577 18.3581 2.40781 17.6808C2.88984 17.0036 3.5709 16.4933 4.35632 16.221C5.14174 15.9487 5.99249 15.9278 6.79031 16.1614C7.58812 16.3949 8.29336 16.8712 8.80799 17.524M8.33332 22.6667V20C8.33332 19.1253 8.50132 18.2893 8.80799 17.524M19 5.33333C19 6.3942 18.5786 7.41161 17.8284 8.16176C17.0783 8.91191 16.0609 9.33333 15 9.33333C13.9391 9.33333 12.9217 8.91191 12.1716 8.16176C11.4214 7.41161 11 6.3942 11 5.33333C11 4.27247 11.4214 3.25505 12.1716 2.50491C12.9217 1.75476 13.9391 1.33333 15 1.33333C16.0609 1.33333 17.0783 1.75476 17.8284 2.50491C18.5786 3.25505 19 4.27247 19 5.33333ZM27 9.33333C27 10.0406 26.719 10.7189 26.2189 11.219C25.7188 11.719 25.0406 12 24.3333 12C23.6261 12 22.9478 11.719 22.4477 11.219C21.9476 10.7189 21.6667 10.0406 21.6667 9.33333C21.6667 8.62609 21.9476 7.94781 22.4477 7.44771C22.9478 6.94762 23.6261 6.66667 24.3333 6.66667C25.0406 6.66667 25.7188 6.94762 26.2189 7.44771C26.719 7.94781 27 8.62609 27 9.33333ZM8.33332 9.33333C8.33332 10.0406 8.05237 10.7189 7.55227 11.219C7.05218 11.719 6.3739 12 5.66666 12C4.95941 12 4.28114 11.719 3.78104 11.219C3.28094 10.7189 2.99999 10.0406 2.99999 9.33333C2.99999 8.62609 3.28094 7.94781 3.78104 7.44771C4.28114 6.94762 4.95941 6.66667 5.66666 6.66667C6.3739 6.66667 7.05218 6.94762 7.55227 7.44771C8.05237 7.94781 8.33332 8.62609 8.33332 9.33333Z" stroke="white" stroke-width="1.5" stroke-linecap="round" stroke-linejoin="round"/>
</svg>
