<svg width="22" height="26" viewBox="0 0 22 26" fill="none" xmlns="http://www.w3.org/2000/svg">
<path d="M16.3333 6.33333C16.3333 7.74782 15.7714 9.10438 14.7712 10.1046C13.771 11.1048 12.4145 11.6667 11 11.6667C9.5855 11.6667 8.22895 11.1048 7.22875 10.1046C6.22856 9.10438 5.66666 7.74782 5.66666 6.33333C5.66666 4.91885 6.22856 3.56229 7.22875 2.5621C8.22895 1.5619 9.5855 1 11 1C12.4145 1 13.771 1.5619 14.7712 2.5621C15.7714 3.56229 16.3333 4.91885 16.3333 6.33333V6.33333ZM11 15.6667C8.52464 15.6667 6.15067 16.65 4.40033 18.4003C2.64999 20.1507 1.66666 22.5246 1.66666 25H20.3333C20.3333 22.5246 19.35 20.1507 17.5997 18.4003C15.8493 16.65 13.4753 15.6667 11 15.6667V15.6667Z" stroke="#DDC8FA" stroke-width="2" stroke-linecap="round" stroke-linejoin="round"/>
</svg>
