<svg width="136" height="32" viewBox="0 0 136 32" fill="none" xmlns="http://www.w3.org/2000/svg">
<path d="M135.119 31.1845V0.81558H127.784V15.6828V31.1845H135.119Z" fill="white"/>
<path d="M108.61 0.815458V31.1844H115.944V26.8396C115.944 22.9193 118.893 19.1753 122.304 17.2442C123.65 16.4823 127.784 15.683 127.784 15.683C127.784 15.683 124.145 15.3776 122.203 14.705C118.462 13.4094 115.944 9.76707 115.944 5.80775V0.815458H108.61Z" fill="white"/>
<path d="M40.7804 1.11496C38.7638 1.85958 37.0197 2.91697 35.5471 4.28974C34.0742 5.66251 32.9235 7.32794 32.0944 9.28692C31.2641 11.2463 30.8503 13.4407 30.8503 15.871C30.8503 18.2736 31.2641 20.4681 32.0944 22.4553C32.9235 24.4437 34.0742 26.1443 35.5471 27.5596C37.0197 28.9753 38.7638 30.0694 40.7804 30.8422C42.796 31.6137 44.9905 32 47.3649 32C49.7379 32 51.9396 31.6137 53.9709 30.8422C56.0013 30.0694 57.7518 28.9753 59.2248 27.5596C60.6981 26.1443 61.8484 24.4437 62.6781 22.4553C63.5072 20.4681 63.9216 18.2736 63.9216 15.871C63.9216 13.4407 63.5072 11.2463 62.6781 9.28692C61.8484 7.32794 60.6981 5.66251 59.2248 4.28974C57.7518 2.91697 56.0013 1.85958 53.9709 1.11496C51.9396 0.371917 49.7379 2.18854e-07 47.3649 2.18854e-07C44.9905 2.18854e-07 42.796 0.371917 40.7804 1.11496ZM43.8471 24.6011C42.7886 24.1288 41.8808 23.4786 41.1237 22.6489C40.3659 21.8198 39.7719 20.8254 39.3427 19.6674C38.9145 18.5093 38.6999 17.2436 38.6999 15.871C38.6999 14.5569 38.9071 13.3264 39.3218 12.1824C39.7368 11.0385 40.3303 10.0588 41.1015 9.24441C41.8746 8.42844 42.7886 7.78555 43.8471 7.31345C44.905 6.84214 46.0784 6.60611 47.3649 6.60611C48.6516 6.60611 49.8306 6.84214 50.9038 7.31345C51.9765 7.78555 52.8905 8.42844 53.6482 9.24441C54.4065 10.0588 55 11.0385 55.4292 12.1824C55.8573 13.3264 56.072 14.5569 56.072 15.871C56.072 17.2436 55.8573 18.5093 55.4292 19.6674C55 20.8254 54.3991 21.8198 53.6272 22.6489C52.856 23.4786 51.9396 24.1288 50.8823 24.6011C49.8234 25.0722 48.6516 25.3085 47.3649 25.3085C46.0784 25.3085 44.905 25.0722 43.8471 24.6011" fill="white"/>
<path d="M84.2109 1.11496C82.209 1.85958 80.4649 2.9244 78.9783 4.3107C77.4912 5.69877 76.3256 7.37836 75.4818 9.35086C74.638 11.3245 74.2173 13.5264 74.2173 15.9569C74.2173 18.3313 74.6308 20.5037 75.4608 22.4774C76.2905 24.4499 77.4339 26.1443 78.8922 27.5596C80.3504 28.9753 82.0732 30.0694 84.0616 30.8422C86.0488 31.6137 88.2148 32 90.5604 32C93.0273 32 95.2108 31.574 97.1266 30.7464V22.33C96.4832 23.1726 95.6574 23.869 94.6351 24.4074C93.5472 24.9799 92.2752 25.2659 90.8176 25.2659C89.5581 25.2659 88.4 25.0365 87.3427 24.5789C86.2842 24.1225 85.3765 23.485 84.6193 22.67C83.8616 21.8556 83.2675 20.8752 82.8384 19.7324C82.4102 18.5891 82.1955 17.3296 82.1955 15.9569C82.1955 14.6129 82.4102 13.3768 82.8384 12.247C83.2675 11.1171 83.8688 10.138 84.6403 9.30788C85.4132 8.47975 86.3346 7.82863 87.4078 7.35634C88.4798 6.88502 89.6589 6.64842 90.9456 6.64842C92.1184 6.64842 93.2624 6.87778 94.3773 7.33537C95.4925 7.79296 96.3935 8.49351 97.0799 9.43692L97.1266 9.39021V1.18475C97.0878 1.17005 97.0543 1.15129 97.0152 1.13717C94.942 0.379815 92.833 2.18854e-07 90.689 2.18854e-07C88.3718 2.18854e-07 86.2129 0.371917 84.2109 1.11496" fill="white"/>
<path d="M7.50691 0.579279C6.10532 0.937274 4.84744 1.50134 3.73248 2.2734C2.61732 3.04566 1.71587 4.03223 1.03007 5.23346C0.343682 6.43409 0 7.87915 0 9.5656C0 10.9384 0.221935 12.1039 0.664821 13.0615C1.10869 14.0207 1.69489 14.8352 2.42382 15.5063C3.15373 16.179 3.98166 16.7294 4.91155 17.1586C5.84026 17.5868 6.7923 17.9595 7.76453 18.2737C8.7648 18.5886 9.659 18.881 10.445 19.1533C11.2315 19.4256 11.8891 19.7248 12.4185 20.0537C12.9474 20.3827 13.3546 20.747 13.6407 21.1479C13.9267 21.5477 14.07 22.0347 14.07 22.6062C14.07 23.2065 13.9555 23.7217 13.7267 24.1499C13.4973 24.5791 13.1905 24.9223 12.8053 25.18C12.4185 25.4366 11.9683 25.6229 11.4535 25.7372C10.9383 25.8523 10.4093 25.9089 9.86623 25.9089C8.66501 25.9089 7.45711 25.6019 6.24119 24.9863C5.03643 24.3772 1.92839 22.2387 1.1875 21.3335V29.2552C6.01141 32.0001 10.7457 32.0001 14.1984 31.3562C15.631 31.0896 16.8438 30.3419 17.9305 29.5118C19.0173 28.6833 19.882 27.632 20.5259 26.3591C21.1688 25.0865 21.4915 23.578 21.4915 21.8337C21.4915 20.3188 21.1907 19.053 20.5898 18.0371C19.9895 17.0229 19.2319 16.1717 18.3167 15.4859C17.4004 14.7989 16.3862 14.249 15.271 13.8333C14.1559 13.4198 13.0835 13.0405 12.0544 12.6974C11.3392 12.469 10.6953 12.247 10.1238 12.0324C9.55078 11.8179 9.05809 11.5823 8.64403 11.3246C8.22839 11.067 7.9147 10.7668 7.70002 10.4241C7.48535 10.0808 7.3783 9.65168 7.3783 9.13645C7.3783 8.53652 7.51377 8.04327 7.78551 7.65724C8.05684 7.27101 8.39327 6.95654 8.7942 6.71363C9.19396 6.47072 9.64429 6.3064 10.1448 6.22033C10.645 6.13486 11.1382 6.09196 11.6252 6.09196C12.5686 6.09196 13.5473 6.3274 14.5631 6.79931C15.2899 7.13711 16.3546 7.58625 18.1478 8.46261V1.22469C16.0404 0.336366 13.2985 0.0430974 11.7536 0.0430974C10.3238 0.0430974 8.90792 0.222068 7.50691 0.579279" fill="white"/>
</svg>
